<svg xmlns="http://www.w3.org/2000/svg" viewBox="41.96 431.55 192 192">
  <style>
    path { fill: #15140f; }
    @media (prefers-color-scheme: dark) { path { fill: #f7f6f3; } }
  </style>
  <path d="m 94.892,604.862 c 2.084,-2.021 7.192,-5.528 7.458,-8.278 1.078,-0.435 1.875,-1.107 2.859,-1.704 0.646,-0.392 1.32,-0.66 1.975,-1.016 0.951,-0.517 1.822,-1.287 2.755,-1.793 0.971,-0.527 2.004,-0.868 2.963,-1.495 1.363,-0.893 4.186,-2.767 5.613,-3.258 0.549,-1.357 1.343,-2.542 1.949,-3.855 l 2.677,-5.767 7.276,-3.168 c 4.868,-6.016 -0.04,-16.336 -0.987,-23.102 -0.238,-1.696 -0.194,-3.601 -0.286,-5.32 -0.026,-0.483 1.99,-3.271 2.365,-3.856 1.198,-1.867 2.407,-3.679 3.639,-5.528 0.965,-1.449 1.526,-3.117 2.755,-4.423 2.079,-2.21 4.479,-4.167 6.601,-6.335 6.188,-6.325 12.579,-12.378 18.789,-18.679 2.022,-2.051 4.547,-3.937 6.393,-6.126 l 5.042,-5.977 c 1.955,-2.318 4.717,-3.612 7.276,-5.23 1.641,-1.037 2.944,-2.875 4.626,-3.826 0.451,-0.255 4.655,-2.587 4.808,-2.72 0.237,-0.206 1.523,-2.685 1.871,-3.078 1.357,-1.537 3.217,-2.988 4.73,-4.393 l 0.208,-5.679 c -1.429,-1.23 -3.584,-2.714 -4.833,-3.944 -0.914,-0.9 -6.549,-5.58 -8.472,-7.143 -0.647,-0.525 -1.422,-0.93 -2.053,-1.464 -1.501,-1.271 -7.649,-6.993 -8.966,-7.471 -0.241,0.72 -4.154,8.051 -4.668,8.642 -0.829,0.953 -1.818,1.965 -2.703,2.869 -0.67,0.685 -4.005,6.11 -4.886,7.411 -0.734,1.086 -2.633,2.781 -3.534,3.945 -1.77,2.289 -3.454,4.76 -5.197,7.053 -0.49,0.644 -1.139,1.429 -1.663,2.032 -0.615,0.707 -2.313,1.242 -2.391,2.271 -1.558,0.915 -2.324,2.947 -3.222,4.423 -0.783,1.287 -1.652,2.7 -2.494,3.945 -0.771,1.14 -5.757,5.606 -7.173,7.053 -1.546,1.58 -2.571,3.663 -4.158,5.26 -0.319,0.321 -0.706,0.448 -1.039,0.717 -0.332,0.267 -4.499,4.695 -4.99,5.26 -1.615,1.856 -3.536,5.309 -5.405,6.814 -2.236,1.799 -4.625,3.591 -6.756,5.499 -1.272,1.138 -2.428,2.727 -3.638,3.944 -0.845,0.851 -2.907,2.297 -3.534,3.108 -0.995,1.287 -1.977,2.299 -3.118,3.466 -1.212,1.239 -2.173,2.946 -3.222,4.304 -1.927,2.492 -4.327,4.587 -6.86,6.335 -1.596,1.101 -4.606,5.432 -6.237,6.933 -1.404,1.292 -8.79,7.615 -9.147,8.726 l -0.208,0.12 c 0.132,0.251 4.884,8.367 6.451,11.605 l 0.931,0.413 c 1.223,1.32 2.576,6.2 3.029,7.998 0.243,0.964 0.33,1.985 0.588,2.944 0.431,1.603 1.01,3.187 1.487,4.778 0.517,1.723 0.907,3.462 1.371,5.193 0.833,3.109 1.914,6.172 2.81,9.269 0.115,0.396 0.252,0.782 0.379,1.174 z"/>
</svg>
